<svg width="44" height="95" viewBox="0 0 44 95" fill="none" xmlns="http://www.w3.org/2000/svg">
<rect width="44" height="95" rx="20" fill="#99D52A"/>
<path d="M25.2141 41.4824L26.6158 40.0806C27.39 39.3065 28.6452 39.3065 29.4194 40.0806C30.1935 40.8548 30.1935 42.11 29.4194 42.8841L28.0176 44.2859M25.2141 41.4824L16.9802 49.7163C15.9349 50.7616 15.4123 51.2842 15.0564 51.9211C14.7005 52.558 14.3424 54.0619 14 55.5C15.4381 55.1576 16.942 54.7995 17.5789 54.4436C18.2158 54.0877 18.7384 53.5651 19.7837 52.5198L28.0176 44.2859M25.2141 41.4824L28.0176 44.2859" stroke="#141807" stroke-width="1.5" stroke-linecap="round" stroke-linejoin="round"/>
<path d="M21 55.5H27" stroke="#141807" stroke-width="1.5" stroke-linecap="round"/>
</svg>
