<svg width="36" height="36" viewBox="0 0 36 36" fill="none" xmlns="http://www.w3.org/2000/svg">
<path d="M32.25 18C32.25 11.2825 32.25 7.92373 30.1631 5.83686C28.0763 3.75 24.7175 3.75 18 3.75C11.2826 3.75 7.92375 3.75 5.8368 5.83686C3.75 7.92373 3.75 11.2825 3.75 18C3.75 24.7174 3.75 28.0763 5.8368 30.1632C7.92375 32.25 11.2826 32.25 18 32.25C24.7175 32.25 28.0763 32.25 30.1631 30.1632C32.25 28.0763 32.25 24.7174 32.25 18Z" fill="#141807"/>
<path d="M15 10.5C15 10.5 21 16.0236 21 18C21 19.9764 15 25.5 15 25.5" stroke="#FCFDFA" stroke-width="2.25" stroke-linecap="round" stroke-linejoin="round"/>
</svg>
